<?xml version="1.0"?><svg version="1.2" baseProfile="tiny-ps" viewBox="0 0 300 300" xmlns="http://www.w3.org/2000/svg" xmlns:xlink="http://www.w3.org/1999/xlink"><title>logo_opti</title><g><g fill="#fefefe" transform="matrix(.1 0 0 -.1 0 300)"><path d="M0 1500V0h3000v3000H0V1500z"/></g><g fill="#dde1e1" transform="matrix(.1 0 0 -.1 0 300)"><path d="M1310 2974c-195-36-289-65-419-125l-84-39H592l-6-27c-2-16-8-50-11-77l-7-50-97-95c-151-149-255-302-333-488l-40-97-29-111-28-112-11-124-11-123 6-86c15-200 62-383 145-557l48-102 63-93 63-93 121-121 120-120 87-58c168-110 347-186 541-228l102-22h185l185-1 90 18c186 38 383 115 523 206l63 41h91l-7 29-6 29 48 44c74 67 153 153 215 236l57 76 60 116 60 115 30 90c16 50 40 137 52 195l22 105v170l1 170-22 110c-117 593-548 1038-1141 1177l-86 20-200 3c-110 2-211 1-225-1zm466-53c56-11 143-33 195-51l94-31 103-54c429-224 712-631 772-1109l13-99-6-136-5-136-17-80c-38-186-116-372-224-535l-56-85-104-107c-57-60-105-107-107-105s-26 113-54 248l-50 244-20 54c-12 29-29 70-40 91l-19 37-37 30-37 29 59 29 59 28 62 63 61 62 41 84 41 83 22 80 21 80 1 140 1 140-19 59-20 59-30 40c-17 22-56 57-86 78l-55 39-60 15-59 15h-511v285l-18 51c-10 28-30 71-46 96l-28 45-62 41c-35 23-79 47-99 53l-37 12-260 6-260 6 80 32c124 49 248 78 415 97 19 2 91 3 160 1l125-4 101-20zM520 2310c-51-361-123-872-160-1140-17-118-32-225-35-237l-5-23h48l5-20 5-20 194 2 193 3 54 383 54 382h68l19-42 19-43 66-305c36-168 68-313 71-322l5-18h37l5-20 5-20h74l-6-32c-3-18-19-132-36-253s-33-230-35-242l-5-23h50v-30h396l47 337c26 186 50 359 54 386l6 47h45l20-17 20-18 15-50c9-27 43-178 77-335s63-293 66-302l5-18h39v-30h295l-70-41c-151-88-343-154-523-180l-83-12-167 6-167 5-86 21c-129 30-232 67-354 129l-109 56-96 72-96 73-86 90-86 90-62 92c-109 163-181 332-221 519l-23 105v370l22 102c60 278 193 528 384 723 44 45 81 80 83 78s-14-127-35-278zm679 74 32-7 11-21 12-21-1-61v-62l-26-55-25-55-25-17c-14-9-50-23-79-31l-53-14H928l5 33c4 17 13 86 22 152s18 130 21 143l4 22h94c51 0 108-3 125-6zm870-603 18-18 7-37 7-37-11-53-11-54-29-45-29-46-66-20-67-21h-120l6 33c3 17 12 86 21 152 8 66 18 130 20 143l5 22h230l19-19zm-709-71c0-5-2-10-4-10-3 0-8 5-11 10l-6 10h10c6 0 11-4 11-10z"/></g><g fill="#b4babb" transform="matrix(.1 0 0 -.1 0 300)"><path d="M1345 2973c-157-20-331-69-463-129l-74-34H592l-11-78-11-77-113-115-113-115-63-94c-110-165-180-330-223-521l-23-105v-400l18-85C185 609 631 166 1235 48l110-21 160-1h160l112 22 113 23 102 35c112 39 210 86 304 145l61 39h93l-6 30-6 29 82 78c99 93 191 209 265 334l55 93 41 104c22 58 52 153 66 211l25 106 5 175 5 176-17 109-17 110-38 115c-44 135-100 251-179 370l-56 85-100 103-99 104-78 58c-104 78-198 134-310 182l-93 40-110 29c-60 15-148 33-195 39l-84 10-116-1c-63-1-128-4-145-6zm453-52c188-40 353-110 514-217l98-65 91-86 90-87 73-96 72-96 56-109c62-122 99-225 130-354l20-86 5-177 5-177-16-101-17-101-34-108-35-107-54-107c-30-59-81-144-113-189l-58-82-94-95-93-94-8 14c-4 8-27 108-50 224-22 116-51 239-62 275-23 72-74 180-86 180-4 1-20 11-36 24l-29 24 62 27 61 28 66 70 66 70 39 81c21 44 48 117 60 161l22 80v135l1 135-22 59c-12 33-33 76-48 97l-26 38-51 35c-29 20-72 43-97 53l-45 17-276 4-275 3v284l-22 59c-27 72-58 115-123 166l-50 40-52 16-52 17-260 6-260 6 95 37c112 43 190 64 309 83l86 14 165-4 165-4 93-20zM445 1767c-63-450-115-826-115-837v-20h40v-30l197 2 197 3 47 340c27 187 51 359 54 383l6 42h22c13 0 32-7 45-15l22-16 15-52c8-29 42-178 75-332 34-154 63-290 67-302l5-23h36l6-15 5-15h71v-14c0-7-16-122-35-256s-35-253-35-266v-24h49l-5-15-6-15 198 2 198 3 47 340c26 187 51 359 54 383l6 42h58l15-16c9-8 23-39 31-67 12-42 145-641 145-654 0-1 9-3 19-3h19l6-15 5-15h143l143-1-20-15c-41-31-214-113-300-142-113-39-262-68-386-77l-96-7-119 12-119 12-111 28-111 29-89 38C474 370 150 785 75 1280l-15 95v258l16 101 16 101 38 115c45 138 97 244 179 366l60 91 93 98c51 53 94 93 95 88 2-5-49-377-112-826zm786 604 24-19v-137l-18-46-17-46-28-25-27-26-54-16-55-16H930v13c0 6 10 85 22 175l22 162h234l23-19zm843-586 15-15 6-44 7-44-11-53c-13-60-43-113-77-135-12-9-47-22-76-30l-53-14h-115v13c0 6 10 85 22 175l22 162h245l15-15zm-717-82c-3-3-11-2-17 2l-12 8 13 8 14 8 4-10c1-6 1-13-2-16z"/></g><g fill="#8d9394" transform="matrix(.1 0 0 -.1 0 300)"><path d="M1385 2973c-158-13-353-64-494-129l-74-34H593l-11-79-11-79-103-104-103-103-58-82c-32-45-82-128-112-185l-53-103-35-105c-19-58-43-150-53-205l-19-100v-170l1-170 18-90C173 632 618 181 1220 53l85-18h400l85 18c176 38 370 115 508 203l52 34h92l-4 29-3 30 95 93c253 249 400 548 441 893l12 100-6 135-6 135-21 97c-40 190-120 376-234 543l-61 90-100 101c-151 152-283 242-476 326l-92 39-111 29-111 28-109 11c-105 11-184 12-271 4zm358-38c268-47 500-156 711-334l78-66 76-90c170-202 267-403 323-665l22-105 1-170v-170l-18-90c-39-201-117-390-227-555l-63-93-99-104c-55-57-105-103-111-103h-12l-48 238-48 237-31 85-30 85-49 47-49 47 61 31c81 41 133 90 191 178l47 72 26 78c34 103 48 189 49 297v90l-13 55c-7 30-23 76-36 101l-23 46-48 43c-62 54-90 68-171 86l-67 14h-497l7 32c4 17 7 77 7 132l-1 101-21 67-21 67-32 42c-40 53-114 104-180 125l-52 17-259 5-259 4 69 30c89 38 218 75 319 92l80 14 155 1 155 1 88-15zM480 1999c-44-316-96-684-115-818-19-135-35-251-35-258v-13h50v-30h378l6 33c3 17 26 181 51 362 25 182 48 340 50 353l5 22h28c35 0 46-8 65-45l15-31 71-325c39-178 71-328 71-332s11-7 25-7h25v-30h70v-19c0-10-16-130-35-267-19-136-35-253-35-261v-13h50v-30h190c105 0 190 1 190 3 0 11 101 727 105 745l6 23 37-3 37-3 17-35 16-36 61-279c34-154 67-304 73-332l11-53h47v-29l146-3 147-3-77-44c-165-94-364-159-557-182l-104-12-130 6-130 7-92 19c-191 41-359 113-524 223l-94 62-110 111-111 110-62 91c-34 50-84 138-112 195l-51 104-29 95c-16 52-37 136-46 185l-17 90v310l21 110c61 314 214 592 438 798l39 36 3-13c2-7-33-271-78-587zm754 376c8-9 18-32 22-51l7-36-6-49-6-50-27-49-27-50-46-22-46-22-93-4-93-4 5 23c6 27 46 305 46 320v9h249l15-15zm806-571 32-7 14-33c18-43 18-98-1-162l-16-52-29-34-30-33-58-17-58-16h-135l5 18c2 9 15 90 27 180l22 162h97c54 0 112-3 130-6zm-680-95v-21l-15 12-15 12 6 9c3 5 9 9 15 9h9v-21z"/></g><g fill="#427675" transform="matrix(.1 0 0 -.1 0 300)"><path d="M595 2798c-3-13-23-143-31-208-6-43-128-920-189-1350-25-173-45-318-45-322v-8h388l6 27c3 16 26 179 51 363s48 346 51 359l5 23 37-7c20-4 49-16 64-26l28-20 19-67c11-37 48-199 83-359l62-293h436v14c0 8-25 137-55 288-53 261-76 345-117 433l-19 40 28-32 28-31 29-74 28-73 59-285c33-156 59-290 59-297v-13l-177-2-177-3-38-265c-20-146-37-271-38-277v-13h389l6 33c3 17 25 181 50 362 25 182 48 340 51 352l4 23h55l33-20 33-20 16-37c8-21 46-179 84-353 38-173 71-321 74-328l4-12h431v18c0 9-27 145-59 302l-58 285-33 77-32 78-44 39-44 38 65 32 64 32 60 65 60 65 39 82 40 82 17 67c9 37 20 107 26 155l10 88-6 55c-3 30-15 85-27 123l-21 67-38 44-38 43-49 21c-26 12-77 26-113 31l-64 11h-462l-17-72-18-73-39-82-39-83-60-63-59-64-46-24-46-24-5-22-6-22-34 27-34 27 63 32 63 31 62 66 62 66 39 83c46 96 66 167 81 295l12 94-11 81-11 82-32 65-33 65-43 32-43 32-42 12c-23 6-71 15-107 20l-65 8-343 1H599l-4-12zm616-401 27-18 12-29 12-30-4-63-4-64-25-49-24-49-50-25-50-25-112-3c-62-2-113-2-113 0 0 1 11 84 25 182 14 99 25 183 25 189v9l128-4 127-3 26-18zm829-585 35-17 13-25 13-25-4-70-4-70-18-35c-9-19-29-47-43-63l-26-27-50-15-50-15h-93c-51 0-93 2-93 3 0 2 11 84 25 183 14 98 25 182 25 187v7h235l35-18z"/></g><g fill="#02514f" transform="matrix(.1 0 0 -.1 0 300)"><path d="m705 2800-109-5-127-905c-70-498-130-922-133-942l-6-38h386l54 386 54 386 43-5 44-5 20-18c12-11 28-32 36-48l15-28 72-332 73-331 216-3c119-1 217 0 217 2 0 3-27 134-59 293l-59 288-26 68c-35 93-54 123-99 154l-39 27 68 34 68 34 50 53c94 96 153 221 181 382l15 86v163l-15 59c-9 33-29 83-44 110l-28 50-52 32-53 31-66 11-67 11-260 2c-143 2-309 1-370-2zm435-380 65-9 28-31 27-30v-145l-21-45c-11-25-30-55-42-68l-21-22-65-21-66-20-82 3-83 3v27c0 24 31 251 45 336l6 32h72c40 0 101-5 137-10zm556-211c-2-8-11-43-20-79s-35-102-58-148l-40-83-62-63-61-63-41-21-41-21-6-20-5-19 33-32 33-32 31-81 31-82 55-270c30-148 57-280 60-292l5-23h-180c-99 0-180-1-180-2-1-2-18-124-39-273-21-148-36-272-34-275 3-3 89-5 191-5h187l54 383 54 382h69l29-17 28-17 20-45 19-46 69-317 68-316 29-6c33-7 406-8 406-2 0 3-25 128-55 278-58 283-81 370-121 449l-23 47-41 29-40 30 63 31 63 31 48 48c66 65 111 134 146 225l30 76 15 87 15 88v78c0 95-14 167-47 236l-24 53-37 30-37 31-65 21-65 21-262 5-263 5-4-14zm351-393 31-19 11-24 11-24v-62l-1-62-13-38c-8-20-25-52-40-71l-26-35-54-15-54-16h-199l28 193c16 105 29 194 29 196 0 1 55 1 123-1l122-3 32-19z"/></g></g></svg>